<svg width="284" height="90" viewBox="0 0 284 90" fill="none" xmlns="http://www.w3.org/2000/svg">
<rect width="90" height="90" rx="45" fill="url(#paint0_linear_1071_8288)"/>
<path fill-rule="evenodd" clip-rule="evenodd" d="M28.1401 40.688C26.5219 43.3067 24.0614 45.4649 20.3889 45.4649C19.1463 45.4649 18.1389 44.4576 18.1389 43.2149C18.1389 41.9723 19.1463 40.9649 20.3889 40.9649C21.9569 40.9649 23.1793 40.1554 24.312 38.3225C25.49 36.4162 26.3327 33.7474 27.0867 30.7884C27.3004 29.9496 27.5096 29.0737 27.7194 28.1952C28.2081 26.1487 28.7 24.0886 29.2602 22.4534C29.6662 21.2685 30.1824 20.0631 30.9091 19.1199C31.6678 18.1353 32.8379 17.223 34.4681 17.223C37.3332 17.223 38.9135 19.1746 39.8172 21.0015C40.4539 22.2885 40.9601 23.9409 41.4205 25.4441C41.5719 25.9382 41.7183 26.4161 41.8628 26.8597C42.5105 28.8484 43.2 30.4872 44.2014 31.6341C45.1 32.6633 46.3284 33.39 48.4199 33.39C49.4832 33.39 50.4691 32.9784 51.6272 32.0961C52.5639 31.3825 53.4421 30.5045 54.4859 29.4609C54.8162 29.1307 55.1631 28.7838 55.5338 28.4204C58.4915 25.5197 62.4068 22.1635 68.7945 22.1635C70.0372 22.1635 71.0445 23.1709 71.0445 24.4135C71.0445 25.6561 70.0372 26.6635 68.7945 26.6635C64.2575 26.6635 61.4505 28.9206 58.6846 31.6332C58.4018 31.9105 58.1116 32.2011 57.8151 32.498C56.7279 33.5867 55.5563 34.7599 54.3542 35.6757C52.7494 36.8983 50.8215 37.89 48.4199 37.89C45.0213 37.89 42.5597 36.5959 40.8116 34.5937C39.1664 32.7094 38.2527 30.3064 37.584 28.2534C37.3692 27.5939 37.1818 26.9827 37.0076 26.4149C36.588 25.0468 36.2457 23.9305 35.7838 22.9968C35.2604 21.9388 34.8965 21.7567 34.5916 21.728C34.563 21.7573 34.5238 21.8015 34.4738 21.8664C34.2001 22.2217 33.8739 22.8711 33.5173 23.9119C33.0288 25.3378 32.622 27.0438 32.1633 28.9674C31.9418 29.8964 31.7081 30.8761 31.4474 31.8995C30.6889 34.8761 29.7129 38.1428 28.1401 40.688ZM34.65 21.6769C34.65 21.6769 34.6456 21.6809 34.6371 21.6857C34.6457 21.6788 34.65 21.6769 34.65 21.6769Z" fill="#96F7B9"/>
<path d="M17.8779 68.4V51.9055H21.3653V58.7111H28.4447V51.9055H31.9241V68.4H28.4447V61.5863H21.3653V68.4H17.8779Z" fill="#FBFDF8"/>
<path d="M36.3995 73.0391C35.9646 73.0391 35.5565 73.0042 35.1753 72.9344C34.7994 72.87 34.488 72.7867 34.241 72.6847L35.0142 70.1236C35.4169 70.2471 35.7793 70.3142 36.1015 70.3249C36.429 70.3356 36.7109 70.2605 36.9472 70.0994C37.1888 69.9383 37.3848 69.6645 37.5351 69.2779L37.7364 68.7544L33.2987 56.0291H36.9069L39.4681 65.114H39.5969L42.1822 56.0291H45.8146L41.0064 69.737C40.7755 70.4028 40.4614 70.9826 40.064 71.4766C39.6721 71.976 39.1754 72.3599 38.5741 72.6283C37.9727 72.9022 37.2478 73.0391 36.3995 73.0391Z" fill="#FBFDF8"/>
<path d="M47.1167 73.0391V56.0291H50.4994V58.107H50.6524C50.8028 57.7741 51.0202 57.4359 51.3048 57.0922C51.5948 56.7432 51.9706 56.4533 52.4324 56.2224C52.8995 55.9861 53.4794 55.868 54.172 55.868C55.0741 55.868 55.9063 56.1043 56.6688 56.5768C57.4312 57.0439 58.0406 57.75 58.497 58.695C58.9534 59.6346 59.1816 60.8132 59.1816 62.2307C59.1816 63.6106 58.9588 64.7757 58.5131 65.7261C58.0728 66.6711 57.4715 67.3879 56.709 67.8765C55.952 68.3597 55.1036 68.6014 54.164 68.6014C53.4982 68.6014 52.9317 68.4913 52.4646 68.2711C52.0028 68.051 51.6243 67.7745 51.329 67.4416C51.0337 67.1033 50.8082 66.7624 50.6524 66.4187H50.5477V73.0391H47.1167ZM50.4753 62.2146C50.4753 62.9502 50.5773 63.5918 50.7813 64.1395C50.9853 64.6871 51.2807 65.114 51.6672 65.42C52.0538 65.7207 52.5236 65.8711 53.0767 65.8711C53.6351 65.8711 54.1076 65.718 54.4942 65.412C54.8808 65.1006 55.1734 64.671 55.3721 64.1233C55.5761 63.5703 55.6781 62.934 55.6781 62.2146C55.6781 61.5004 55.5788 60.8722 55.3801 60.3299C55.1815 59.7876 54.8888 59.3634 54.5022 59.0574C54.1156 58.7513 53.6405 58.5983 53.0767 58.5983C52.5183 58.5983 52.0458 58.746 51.6592 59.0413C51.278 59.3366 50.9853 59.7554 50.7813 60.2977C50.5773 60.84 50.4753 61.479 50.4753 62.2146Z" fill="#FBFDF8"/>
<path d="M66.6048 68.6416C65.3537 68.6416 64.2718 68.3758 63.359 67.8443C62.4516 67.3074 61.7509 66.561 61.2569 65.6053C60.763 64.6442 60.516 63.53 60.516 62.2629C60.516 60.985 60.763 59.8682 61.2569 58.9124C61.7509 57.9513 62.4516 57.205 63.359 56.6734C64.2718 56.1365 65.3537 55.868 66.6048 55.868C67.8558 55.868 68.9351 56.1365 69.8425 56.6734C70.7553 57.205 71.4586 57.9513 71.9526 58.9124C72.4466 59.8682 72.6936 60.985 72.6936 62.2629C72.6936 63.53 72.4466 64.6442 71.9526 65.6053C71.4586 66.561 70.7553 67.3074 69.8425 67.8443C68.9351 68.3758 67.8558 68.6416 66.6048 68.6416ZM66.6209 65.9838C67.19 65.9838 67.6652 65.8227 68.0464 65.5006C68.4277 65.173 68.7149 64.7274 68.9082 64.1636C69.1069 63.5998 69.2062 62.9582 69.2062 62.2387C69.2062 61.5192 69.1069 60.8776 68.9082 60.3138C68.7149 59.75 68.4277 59.3044 68.0464 58.9769C67.6652 58.6493 67.19 58.4856 66.6209 58.4856C66.0464 58.4856 65.5631 58.6493 65.1712 58.9769C64.7846 59.3044 64.492 59.75 64.2933 60.3138C64.1 60.8776 64.0033 61.5192 64.0033 62.2387C64.0033 62.9582 64.1 63.5998 64.2933 64.1636C64.492 64.7274 64.7846 65.173 65.1712 65.5006C65.5631 65.8227 66.0464 65.9838 66.6209 65.9838Z" fill="#FBFDF8"/>
<path d="M100 56.2855V27.1946H106.151V39.1974H118.636V27.1946H124.773V56.2855H118.636V44.2684H106.151V56.2855H100Z" fill="#E1E3DE"/>
<path d="M132.666 64.4673C131.899 64.4673 131.179 64.4058 130.507 64.2827C129.844 64.169 129.295 64.0222 128.859 63.8423L130.223 59.3253C130.933 59.5431 131.572 59.6614 132.14 59.6804C132.718 59.6993 133.215 59.5667 133.632 59.2827C134.058 58.9986 134.404 58.5156 134.669 57.8338L135.024 56.9105L127.197 34.4673H133.561L138.078 50.49H138.305L142.865 34.4673H149.271L140.791 58.6435C140.384 59.8177 139.83 60.8404 139.129 61.7116C138.438 62.5923 137.562 63.2694 136.501 63.7429C135.441 64.2258 134.162 64.4673 132.666 64.4673Z" fill="#E1E3DE"/>
<path d="M151.568 64.4673V34.4673H157.534V38.1321H157.803C158.069 37.545 158.452 36.9484 158.954 36.3423C159.465 35.7268 160.128 35.2154 160.943 34.8082C161.766 34.3916 162.789 34.1832 164.011 34.1832C165.602 34.1832 167.07 34.5999 168.414 35.4332C169.759 36.2571 170.834 37.5024 171.639 39.169C172.444 40.8262 172.846 42.9048 172.846 45.4048C172.846 47.8385 172.453 49.8935 171.667 51.5696C170.891 53.2363 169.83 54.5005 168.485 55.3622C167.15 56.2145 165.654 56.6406 163.997 56.6406C162.822 56.6406 161.823 56.4465 160.999 56.0582C160.185 55.67 159.517 55.1823 158.997 54.5952C158.476 53.9986 158.078 53.3972 157.803 52.7912H157.619V64.4673H151.568ZM157.491 45.3764C157.491 46.6738 157.671 47.8054 158.031 48.7713C158.391 49.7372 158.911 50.49 159.593 51.0298C160.275 51.5601 161.104 51.8253 162.079 51.8253C163.064 51.8253 163.897 51.5554 164.579 51.0156C165.261 50.4664 165.777 49.7088 166.127 48.7429C166.487 47.7675 166.667 46.6453 166.667 45.3764C166.667 44.1169 166.492 43.009 166.141 42.0525C165.791 41.0961 165.275 40.348 164.593 39.8082C163.911 39.2684 163.073 38.9986 162.079 38.9986C161.094 38.9986 160.261 39.259 159.579 39.7798C158.907 40.3006 158.391 41.0393 158.031 41.9957C157.671 42.9522 157.491 44.0791 157.491 45.3764Z" fill="#E1E3DE"/>
<path d="M185.938 56.7116C183.732 56.7116 181.823 56.2429 180.214 55.3054C178.613 54.3584 177.377 53.0421 176.506 51.3565C175.635 49.6614 175.199 47.6965 175.199 45.4616C175.199 43.2078 175.635 41.2381 176.506 39.5525C177.377 37.8575 178.613 36.5412 180.214 35.6037C181.823 34.6567 183.732 34.1832 185.938 34.1832C188.145 34.1832 190.048 34.6567 191.648 35.6037C193.258 36.5412 194.499 37.8575 195.37 39.5525C196.241 41.2381 196.677 43.2078 196.677 45.4616C196.677 47.6965 196.241 49.6614 195.37 51.3565C194.499 53.0421 193.258 54.3584 191.648 55.3054C190.048 56.2429 188.145 56.7116 185.938 56.7116ZM185.966 52.0241C186.97 52.0241 187.808 51.74 188.481 51.1719C189.153 50.5942 189.66 49.8082 190.001 48.8139C190.351 47.8196 190.526 46.688 190.526 45.419C190.526 44.1501 190.351 43.0185 190.001 42.0241C189.66 41.0298 189.153 40.2438 188.481 39.6662C187.808 39.0885 186.97 38.7997 185.966 38.7997C184.953 38.7997 184.101 39.0885 183.41 39.6662C182.728 40.2438 182.212 41.0298 181.861 42.0241C181.52 43.0185 181.35 44.1501 181.35 45.419C181.35 46.688 181.52 47.8196 181.861 48.8139C182.212 49.8082 182.728 50.5942 183.41 51.1719C184.101 51.74 184.953 52.0241 185.966 52.0241Z" fill="#E1E3DE"/>
<path d="M225.593 37.3792H219.371C219.257 36.5743 219.025 35.8594 218.675 35.2344C218.325 34.5999 217.875 34.0601 217.326 33.615C216.776 33.17 216.142 32.8291 215.422 32.5923C214.712 32.3556 213.94 32.2372 213.107 32.2372C211.601 32.2372 210.29 32.6113 209.172 33.3594C208.055 34.098 207.188 35.1775 206.573 36.598C205.957 38.009 205.649 39.723 205.649 41.74C205.649 43.8139 205.957 45.5563 206.573 46.9673C207.198 48.3783 208.069 49.4436 209.186 50.1633C210.304 50.883 211.596 51.2429 213.064 51.2429C213.888 51.2429 214.65 51.134 215.351 50.9162C216.061 50.6984 216.691 50.3811 217.24 49.9645C217.79 49.5383 218.244 49.0222 218.604 48.4162C218.973 47.8101 219.229 47.1188 219.371 46.3423L225.593 46.3707C225.432 47.706 225.029 48.9938 224.385 50.2344C223.751 51.4654 222.894 52.5686 221.814 53.544C220.744 54.5099 219.466 55.277 217.979 55.8452C216.502 56.4039 214.83 56.6832 212.965 56.6832C210.37 56.6832 208.05 56.0961 206.005 54.9219C203.969 53.7476 202.359 52.0478 201.175 49.8224C200.001 47.597 199.414 44.9029 199.414 41.74C199.414 38.5677 200.01 35.8688 201.203 33.6435C202.397 31.4181 204.016 29.723 206.061 28.5582C208.107 27.384 210.408 26.7969 212.965 26.7969C214.65 26.7969 216.213 27.0336 217.652 27.5071C219.101 27.9806 220.384 28.6719 221.502 29.5809C222.619 30.4806 223.528 31.5838 224.229 32.8906C224.939 34.1974 225.394 35.6936 225.593 37.3792Z" fill="#E1E3DE"/>
<path d="M238.947 56.7116C236.741 56.7116 234.833 56.2429 233.223 55.3054C231.623 54.3584 230.387 53.0421 229.516 51.3565C228.644 49.6614 228.209 47.6965 228.209 45.4616C228.209 43.2078 228.644 41.2381 229.516 39.5525C230.387 37.8575 231.623 36.5412 233.223 35.6037C234.833 34.6567 236.741 34.1832 238.947 34.1832C241.154 34.1832 243.057 34.6567 244.658 35.6037C246.268 36.5412 247.508 37.8575 248.379 39.5525C249.25 41.2381 249.686 43.2078 249.686 45.4616C249.686 47.6965 249.25 49.6614 248.379 51.3565C247.508 53.0421 246.268 54.3584 244.658 55.3054C243.057 56.2429 241.154 56.7116 238.947 56.7116ZM238.976 52.0241C239.98 52.0241 240.818 51.74 241.49 51.1719C242.162 50.5942 242.669 49.8082 243.01 48.8139C243.36 47.8196 243.536 46.688 243.536 45.419C243.536 44.1501 243.36 43.0185 243.01 42.0241C242.669 41.0298 242.162 40.2438 241.49 39.6662C240.818 39.0885 239.98 38.7997 238.976 38.7997C237.963 38.7997 237.11 39.0885 236.419 39.6662C235.737 40.2438 235.221 41.0298 234.871 42.0241C234.53 43.0185 234.359 44.1501 234.359 45.419C234.359 46.688 234.53 47.8196 234.871 48.8139C235.221 49.8082 235.737 50.5942 236.419 51.1719C237.11 51.74 237.963 52.0241 238.976 52.0241Z" fill="#E1E3DE"/>
<path d="M252.821 56.2855V34.4673H258.872V56.2855H252.821ZM255.861 31.6548C254.961 31.6548 254.189 31.3565 253.545 30.7599C252.911 30.1539 252.593 29.4294 252.593 28.5866C252.593 27.7533 252.911 27.0383 253.545 26.4417C254.189 25.8357 254.961 25.5327 255.861 25.5327C256.76 25.5327 257.527 25.8357 258.162 26.4417C258.806 27.0383 259.128 27.7533 259.128 28.5866C259.128 29.4294 258.806 30.1539 258.162 30.7599C257.527 31.3565 256.76 31.6548 255.861 31.6548Z" fill="#E1E3DE"/>
<path d="M268.97 43.6719V56.2855H262.919V34.4673H268.686V38.3167H268.942C269.425 37.0478 270.235 36.044 271.371 35.3054C272.507 34.5573 273.885 34.1832 275.504 34.1832C277.02 34.1832 278.341 34.5147 279.467 35.1775C280.594 35.8404 281.47 36.7874 282.095 38.0184C282.72 39.24 283.033 40.6984 283.033 42.3934V56.2855H276.982V43.473C276.991 42.1378 276.65 41.0961 275.959 40.348C275.268 39.5904 274.316 39.2116 273.104 39.2116C272.289 39.2116 271.57 39.3868 270.945 39.7372C270.329 40.0876 269.846 40.5989 269.496 41.2713C269.155 41.9342 268.98 42.7344 268.97 43.6719Z" fill="#E1E3DE"/>
<defs>
<linearGradient id="paint0_linear_1071_8288" x1="45" y1="0" x2="45" y2="90" gradientUnits="userSpaceOnUse">
<stop stop-color="#5ACD86"/>
<stop offset="1" stop-color="#007642"/>
</linearGradient>
</defs>
</svg>
